<svg xmlns="http://www.w3.org/2000/svg" xmlns:xlink="http://www.w3.org/1999/xlink" viewBox="0 0 785.6 434.34"><defs><style>.cls-1{fill:#5a7a3e;}.cls-2{fill:#a9c579;}.cls-3{fill:#517c34;}.cls-4{fill:#8ab068;}.cls-5{fill:#517f35;}.cls-6{fill:#8ab06a;}.cls-7{fill:#587a42;}.cls-8{fill:#98bb66;}.cls-9{fill:#3f7a3a;}.cls-10{fill:#7eaa77;}.cls-11{fill:#3e823c;}.cls-12{fill:#73a667;}.cls-13{fill:url(#Gradiente_sem_nome_9);}.cls-14{fill:#505355;}</style><linearGradient id="Gradiente_sem_nome_9" x1="255.54" y1="61.63" x2="255.54" y2="419.3" gradientUnits="userSpaceOnUse"><stop offset="0" stop-color="#27733c"/><stop offset="0.09" stop-color="#41833a"/><stop offset="0.23" stop-color="#619839"/><stop offset="0.37" stop-color="#78a637"/><stop offset="0.49" stop-color="#86af36"/><stop offset="0.6" stop-color="#8bb236"/><stop offset="1" stop-color="#727176"/></linearGradient></defs><title>Ativo 5</title><g id="Camada_2" data-name="Camada 2"><g id="Camada_1-2" data-name="Camada 1"><path class="cls-1" d="M162.46,214.45A356.81,356.81,0,0,0,109.75,195c-26-7.32-39-11-53.91-8.23C27.48,192,9,216.51,0,231.36a295.26,295.26,0,0,0,49.64,4.51A302.49,302.49,0,0,0,162.46,214.45Z"/><path class="cls-2" d="M162.51,214c-33.45.72-59.58.82-77.48.77-10.86,0-19.18-.11-30.67,1.26A191.63,191.63,0,0,0,.06,230.91a451,451,0,0,0,44.32,13.45c19.27,4.78,29.15,7.15,41.67,6.48,17-.92,29.45-6.24,37-9.55A125.89,125.89,0,0,0,162.51,214Z"/><path class="cls-3" d="M59.37,101.58A128.31,128.31,0,0,1,82,94.82c9.88-2,24.5-4.89,39.49-.95,20.81,5.46,33.64,21.82,39.75,31.31a269.06,269.06,0,0,1-27,5c-2.38.31-6.28.82-10.52,1.16-8.39.65-22.83,1.79-33.94-1.64C84.55,128.07,70.94,122.65,59.37,101.58Z"/><path class="cls-4" d="M59.37,101.58a109.77,109.77,0,0,0,26,9.33c16.78,3.71,25.46,1.61,42.2,4a116,116,0,0,1,33.7,10.29c-6.32,4.75-18.37,12.54-34.38,15.2-6.41,1.06-20.84,3.25-36.49-4.34C71.13,126.68,62.29,108.45,59.37,101.58Z"/><path class="cls-5" d="M164.19,95A75.83,75.83,0,0,1,183.45,77.4c20.17-12.68,40.12-10.49,50.29-9.22,17.92,2.25,32.47,9.53,42.22,15.72-12.93,4.37-23.57,7.42-31.37,9.23-9.71,2.27-18.52,4.33-30.89,5.26a174.15,174.15,0,0,1-28.82-.25A179.91,179.91,0,0,1,164.19,95Z"/><path class="cls-6" d="M164.19,95a85.13,85.13,0,0,1,18.29-7.55c20.1-5.68,33.42-1.25,57.91-1A211.07,211.07,0,0,0,276,83.9a100.93,100.93,0,0,1-25.37,14.74,97.42,97.42,0,0,1-32.67,6.76c-14.68.5-26.43-2.28-33.89-4.1A158.2,158.2,0,0,1,164.19,95Z"/><path class="cls-7" d="M300.43,138.79a88.15,88.15,0,0,0-28.72-10.52c-21.81-3.84-39.06,1.86-50.16,5.67-34.48,11.84-55.93,35.74-65.75,48.44,8.62.2,20.66.21,35-.71,7.95-.52,28.06-1.82,43.28-5.26C247.57,173.36,272.68,165.12,300.43,138.79Z"/><path class="cls-8" d="M300.43,138.79a197.55,197.55,0,0,1-54.2,18.61c-21.47,3.93-34.72,2.46-57.17,9.71a155.87,155.87,0,0,0-33.26,15.27,254.43,254.43,0,0,0,34.61,5.35c2.19.19,5.37.47,9.07.62,11.39.47,28,1.16,45.94-5.06,16.88-5.87,27.87-15.26,34.33-20.9A119.31,119.31,0,0,0,300.43,138.79Z"/><path class="cls-9" d="M117.87,36.59A90,90,0,0,1,130,33.33c10.21-2,24.73-4.84,38.07,2.18a39.76,39.76,0,0,1,13.42,11.71c-2.58.72-6.37,1.74-11,2.85s-7.49,1.81-9.71,2.16c-8.19,1.3-15.08-.78-19.68-2.16A58.89,58.89,0,0,1,117.87,36.59Z"/><path class="cls-10" d="M117.87,36.59a181.84,181.84,0,0,0,18.87,6.2,124.81,124.81,0,0,0,21.31,4.32,122.2,122.2,0,0,0,23.39.11,40.38,40.38,0,0,1-22.29,9.24c-11.88,1-20.7-4-25.6-6.72A55.27,55.27,0,0,1,117.87,36.59Z"/><path class="cls-11" d="M239.78,2.5c-2.36-.89-16.36-5.91-30.77,1.44a37.78,37.78,0,0,0-16.27,16.41c3.68.89,19.38,4.23,34.07-5A41.78,41.78,0,0,0,239.78,2.5Z"/><path class="cls-12" d="M239.78,2.5a185.42,185.42,0,0,0-33,10.94c-5.05,2.22-9.73,4.55-14.06,6.91,3.68.89,19.38,4.23,34.07-5A41.78,41.78,0,0,0,239.78,2.5Z"/><path class="cls-13" d="M178.47,276.19c-3.19-7.84-18.33-46.14-18.87-102.47C158.63,73.76,204.43.13,204.1,0s-45.39,63.44-49.2,157.13c-1.23,30.15-4.59,111.09,50.79,182.53,56.6,73,146,100.59,150.78,93.64,1.31-1.9-3.29-8.63-8.11-12.57-7.43-6.07-16.42-6.34-18.87-6.47-11-.61-26.37-8.34-57.14-23.81C237,372.7,199.08,326.79,178.47,276.19Z"/><path class="cls-3" d="M241.53,225.44V219.8H259.6v7.44h-1.55ZM259.6,292v7.43H241.53v-5.63l16.52-1.8Zm-7.77-34.71c0-12.44,0-25-.36-37.46h16.1c-.36,12.21-.36,24.78-.36,37.46v3.54c0,13.63,0,26.16.36,38.6h-16.1c.36-12.2.36-24.73.36-37.41Zm7.77-2.18h12.5c12.42,0,17.95-4.81,17.95-15.06,0-9.93-5.35-14-16.21-14H259.6V219.8h18.64c18.43,0,27,8.07,27,19.11,0,9.14-6,17.06-23.71,19.16V257c20,1.43,28,9.39,28,20.37,0,10.48-8.16,22-34.49,22H259.6v-6.22h13.56c13.31,0,20.29-5.57,20.29-15.91,0-11-6.48-16.23-20.81-16.23h-13Z"/><path class="cls-3" d="M325.72,274.21v-6.35c0-6.6-.12-9.66-.36-14.46l-8.45-1.08v-4.46l20.06-7.6,1.93,1.25,1.27,14.86v17.84c0,7.44.12,19.79.36,25.19H325.36C325.6,294,325.72,281.65,325.72,274.21Zm-7.85,20.29,12.32-2.4h7.59l12.32,2.4v4.9H317.87Zm15.43-36.32h7.94l-2.3,2.07c3-13,10.81-20,17.93-20,4.36,0,8.27,2.3,9.49,6.5-.13,6-2.95,9.29-7.75,9.29-3.2,0-5.75-1.43-8.26-4.24L347,248.12l5.35.3c-5.85,3.49-10.17,9.66-12.32,17.85l-6.71-.44Z"/><path class="cls-3" d="M390.88,267c5-1.62,13-3.82,18.86-5v4.68a109.52,109.52,0,0,0-15.86,4.79c-8.07,3.24-10.46,7.53-10.46,12.11,0,6.19,3.67,8.84,8.44,8.84,3.24,0,5.37-1.25,11-5.33l3.63-2.73L408,286.4l-4.27,4.49c-6.5,6.67-10.4,10.21-18.43,10.21-9,0-15.9-5.26-15.9-15.18C369.39,278.28,373.56,272.57,390.88,267Zm11.42,22V260.26c0-11.19-2.7-14.2-10.49-14.2a33.93,33.93,0,0,0-11,1.94l6.56-4.21-2,9.31c-.69,5.77-3.54,8.35-7.49,8.35-3.77,0-6.17-1.93-6.76-5.42,1.44-9.56,10.72-15.77,25.4-15.77,13.9,0,20,6.08,20,21.69v26.18c0,3.86,1.32,5.39,3.56,5.39,1.64,0,2.78-.86,4.15-2.64l2.79,2.37c-2.88,5.57-6.65,7.62-12.35,7.62C407.23,300.87,402.82,296.33,402.3,289Z"/><path class="cls-3" d="M438.52,299.4c.24-5.4.36-17.75.36-25.19v-6.3c0-6.61-.12-9.71-.36-14.51l-8.45-1.08v-4.46l20.06-7.6,1.93,1.25,1.27,13.61v19.09c0,7.44.11,19.79.35,25.19Zm22.07-4.9v4.9H431v-4.9l12.14-2.4h5.84Zm29-32.83v12.54c0,7.67.12,19.79.36,25.19H474.82c.24-5.4.36-17.52.36-25.19V262.85c0-9.4-2.39-12.56-8.36-12.56-5.12,0-10.48,2.8-16.26,8.55h-3.31v-6.59h7.13L449.53,255c7.05-9.89,15.24-14.76,23.8-14.76C483.69,240.26,489.63,246.84,489.63,261.67ZM485.2,292.1l11.87,2.4v4.9H467.4v-4.9l12-2.4Z"/><path class="cls-3" d="M519.5,269.17c0,14.46,7.34,22.38,18,22.38a18.2,18.2,0,0,0,15.13-8l3.54,2.59c-3.95,9.87-12.11,15-23.44,15-16.39,0-28.34-11-28.34-30.28s13.86-30.56,30-30.56c11.69,0,20.57,7.26,21.78,16.49-.95,3.67-3.11,5.37-6.77,5.37-4.35,0-7.1-2.66-7.81-8.44l-2-9.55,7.15,4.71a24.39,24.39,0,0,0-11.08-2.78C527,246.06,519.5,253.37,519.5,269.17Z"/><path class="cls-3" d="M569.58,222.68l-8.69-1.2v-4.64l21.44-5.4,1.81,1.1-.48,16.9V254l.36,1.56v18.65c0,7.44.12,19.79.36,25.19H569.22c.24-5.4.36-17.75.36-25.19Zm21.63,71.82v4.9H561.58v-4.9l12.15-2.4h5.83Zm29.42-32.83v12.54c0,7.67.12,19.79.36,25.19H605.82c.24-5.4.36-17.52.36-25.19V262.85c0-9.44-2.22-12.56-8.23-12.56-5.2,0-10.26,3-16.13,9h-3.44v-7h7l-5,2.77c7-9.89,15.26-14.76,23.82-14.76C614.65,240.26,620.63,246.84,620.63,261.67ZM616.2,292.1l11.87,2.4v4.9H598.4v-4.9l12-2.4Z"/><path class="cls-8" d="M635.85,225.44V219.8h18.07v7.44h-1.55ZM653.92,292v7.43H635.85v-5.63l16.52-1.8Zm-7.78-35c0-12.36,0-24.84-.36-37.2h16.28c-.36,12.12-.36,24.6-.36,37.2v4.25c0,13.32,0,25.79.36,38.15H645.78c.36-12.11.36-24.59.36-38.11Zm7.78,36.18h14.86c16.24,0,25.64-12.24,25.64-33.55,0-21.88-9.4-33.61-25-33.61h-15.5V219.8h17.46c24.2,0,39.82,14.56,39.82,39.75,0,25.47-17.32,39.85-42.09,39.85H653.92Z"/><path class="cls-8" d="M717.57,225.44V219.8h18.07v7.44h-1.55ZM735.64,292v7.43H717.57v-5.63l16.52-1.8Zm-7.78-34.71c0-12.44,0-25-.36-37.46h16.1c-.36,12.21-.36,24.78-.36,37.46v3.54c0,13.63,0,26.16.36,38.6H727.5c.36-12.2.36-24.73.36-37.41Zm7.78-2.18h12.5c12.42,0,18-4.81,18-15.06,0-9.93-5.35-14-16.21-14H735.64V219.8h18.64c18.42,0,27,8.07,27,19.11,0,9.14-6,17.06-23.72,19.16V257c20,1.43,28,9.39,28,20.37,0,10.48-8.16,22-34.5,22H735.64v-6.22h13.55c13.31,0,20.3-5.57,20.3-15.91,0-11-6.48-16.23-20.82-16.23h-13Z"/><path class="cls-14" d="M249.94,334.17l-3.57,11.26h-2.24l10.48-32.35h2.14l10.48,32.35h-2.29l-3.63-11.26Zm10.74-1.88L257.31,322c-.73-2.32-1.16-4.15-1.62-6.21h-.14c-.44,2.11-.94,4-1.6,6.16l-3.37,10.35Z"/><path class="cls-14" d="M306.56,330c-.29-4.89-.63-10.58-.57-14.2h-.16c-1.05,3.57-2.24,7.34-3.91,12.08l-6.17,17.52h-1.43l-5.8-17c-1.7-5-3-8.95-3.86-12.61h-.14c0,3.86-.25,9.24-.59,14.64l-.9,15h-2.19L283,313.08h2.55l6.23,18.07c1.42,4.19,2.47,7.34,3.34,10.64h.11c.8-3.22,1.82-6.23,3.33-10.62l6.36-18.09h2.69l2.05,32.35h-2.21Z"/><path class="cls-14" d="M332.12,339.75c0,2.21.1,4,.19,5.68h-2l-.17-3.58H330a8,8,0,0,1-6.94,4.07c-3.19,0-7.07-1.94-7.07-9.66V322.39h2.21V335.8c0,4.72,1.26,8.19,5.37,8.19a6.58,6.58,0,0,0,6-4.49,9,9,0,0,0,.35-2.41v-14.7h2.21Z"/><path class="cls-14" d="M339.22,311.61h2.22v33.82h-2.22Z"/><path class="cls-14" d="M351.81,315.89v6.5h5.91v1.83h-5.91v15.19c0,3,1,4.56,3.11,4.56a7.34,7.34,0,0,0,2.25-.29l.26,1.71a7.17,7.17,0,0,1-2.84.48,4.52,4.52,0,0,1-3.71-1.54c-.94-1.14-1.28-2.91-1.28-5.43V324.22H346v-1.83h3.59v-5.73Z"/><path class="cls-14" d="M365.18,316a1.77,1.77,0,1,1-3.52,0,1.83,1.83,0,0,1,1.76-1.93A1.78,1.78,0,0,1,365.18,316Zm-2.87,29.42v-23h2.21v23Z"/><path class="cls-14" d="M371.67,311.61h2.21v33.82h-2.21Z"/><path class="cls-14" d="M381.75,333.5c0,7.93,3.77,10.45,7.88,10.45a11.12,11.12,0,0,0,5.52-1.19l.56,1.73a13,13,0,0,1-6.39,1.38c-6.15,0-9.78-4.8-9.78-11.61,0-7.57,3.87-12.35,9.31-12.35,6.65,0,8,6.65,8,10.2a9.67,9.67,0,0,1-.06,1.39Zm12.79-1.78c.07-4-1.57-7.94-6-7.94s-6.32,4.35-6.69,7.94Z"/><path class="cls-14" d="M401.9,322.39l4.89,14.39c.74,2,1.37,4,1.89,5.85h.11c.52-1.84,1.23-3.85,1.94-5.85l4.9-14.39h2.31l-8.35,23h-1.93l-8.07-23Z"/><path class="cls-14" d="M422.26,333.5c0,7.93,3.77,10.45,7.88,10.45a11.09,11.09,0,0,0,5.52-1.19l.56,1.73a13,13,0,0,1-6.39,1.38c-6.15,0-9.78-4.8-9.78-11.61,0-7.57,3.88-12.35,9.31-12.35,6.65,0,8,6.65,8,10.2a11.58,11.58,0,0,1-.05,1.39Zm12.79-1.78c.07-4-1.57-7.94-6-7.94s-6.32,4.35-6.69,7.94Z"/><path class="cls-14" d="M442.76,311.61H445v33.82h-2.21Z"/><path class="cls-14" d="M462,313.53a35.26,35.26,0,0,1,7-.67c5,0,8.79,1.35,11.13,3.75,2.52,2.47,4.16,6.24,4.16,11.79,0,5.7-1.47,9.8-4,12.68s-6.93,4.57-12.26,4.57a49.13,49.13,0,0,1-6-.28Zm2.21,30a30.24,30.24,0,0,0,4.13.19c8.69,0,13.69-4.94,13.69-15.19.05-8.47-4-13.82-13.11-13.82a24.6,24.6,0,0,0-4.71.42Z"/><path class="cls-14" d="M500.81,345.43l-.29-3.07h-.12a7.42,7.42,0,0,1-6.44,3.56,6,6,0,0,1-6.27-6.34c0-5.39,4.53-8.41,12.66-8.36v-.69c0-2.77-.5-6.75-5.32-6.72a8.75,8.75,0,0,0-5,1.53l-.68-1.64a10.89,10.89,0,0,1,6-1.79c5.59,0,7.23,4,7.23,8.58v9.56a39.35,39.35,0,0,0,.29,5.38Zm-.46-12.33c-4.05-.1-10.33.47-10.33,6.19,0,3.35,2,4.75,4.18,4.75a6,6,0,0,0,5.95-4.54,5,5,0,0,0,.2-1.41Z"/><path class="cls-14" d="M512.32,315.89v6.5h5.91v1.83h-5.91v15.19c0,3,1,4.56,3.1,4.56a7.24,7.24,0,0,0,2.25-.29l.27,1.71a7.19,7.19,0,0,1-2.85.48,4.52,4.52,0,0,1-3.7-1.54c-.95-1.14-1.28-2.91-1.28-5.43V324.22h-3.59v-1.83h3.59v-5.73Z"/><path class="cls-14" d="M534.12,345.43l-.29-3.07h-.12a7.42,7.42,0,0,1-6.44,3.56,6,6,0,0,1-6.27-6.34c0-5.39,4.53-8.41,12.66-8.36v-.69c0-2.77-.5-6.75-5.32-6.72a8.75,8.75,0,0,0-5,1.53l-.68-1.64a10.89,10.89,0,0,1,6-1.79c5.59,0,7.23,4,7.23,8.58v9.56a37.8,37.8,0,0,0,.3,5.38Zm-.46-12.33c-4-.1-10.33.47-10.33,6.19,0,3.35,2,4.75,4.18,4.75a6,6,0,0,0,6-4.54,5,5,0,0,0,.2-1.41Z"/><path class="cls-14" d="M542.57,345.43c.1-1.39.19-3.62.19-5.15V311.61H545v14.67h.09a7.72,7.72,0,0,1,7.37-4.37c5,0,8.76,4.46,8.76,11.83,0,8.32-4.73,12.18-9.19,12.18a7.55,7.55,0,0,1-7.15-4.36h-.14l-.17,3.87Zm2.41-8.64a7,7,0,0,0,.17,1.59c1,3.83,3.7,5.66,6.59,5.66,4.74,0,7.2-4.49,7.2-10.25,0-5.22-2.38-10-7.09-10-3,0-5.81,2.48-6.65,5.93a9,9,0,0,0-.22,1.91Z"/><path class="cls-14" d="M577.94,345.43l-.29-3.07h-.12a7.41,7.41,0,0,1-6.44,3.56,6,6,0,0,1-6.27-6.34c0-5.39,4.53-8.41,12.66-8.36v-.69c0-2.77-.5-6.75-5.32-6.72a8.75,8.75,0,0,0-5,1.53l-.68-1.64a10.94,10.94,0,0,1,6-1.79c5.59,0,7.23,4,7.23,8.58v9.56a39.35,39.35,0,0,0,.29,5.38Zm-.46-12.33c-4-.1-10.32.47-10.32,6.19,0,3.35,2,4.75,4.17,4.75a6,6,0,0,0,5.95-4.54,5,5,0,0,0,.2-1.41Z"/><path class="cls-14" d="M585.67,342.5a8.91,8.91,0,0,0,4.67,1.47c3.25,0,4.94-1.88,4.94-4.32S594,335.84,591,334.4c-3.4-1.58-5.49-3.53-5.49-6.38,0-3.38,2.64-6.11,6.65-6.11a8.15,8.15,0,0,1,4.7,1.4l-.91,1.8a6.74,6.74,0,0,0-4.08-1.3,3.85,3.85,0,0,0-4.17,3.85c0,2.25,1.33,3.28,4.24,4.71,3.26,1.51,5.6,3.38,5.6,6.9,0,4.13-3,6.6-7.3,6.6a9.87,9.87,0,0,1-5.34-1.52Z"/><path class="cls-14" d="M603.56,333.5c0,7.93,3.77,10.45,7.87,10.45a11.09,11.09,0,0,0,5.52-1.19l.56,1.73a13,13,0,0,1-6.39,1.38c-6.15,0-9.78-4.8-9.78-11.61,0-7.57,3.88-12.35,9.31-12.35,6.66,0,8,6.65,8,10.2a11.58,11.58,0,0,1,0,1.39Zm12.78-1.78c.08-4-1.57-7.94-6-7.94s-6.32,4.35-6.69,7.94Z"/></g></g></svg>